<svg version="1.1" id="Layer_1" xmlns="http://www.w3.org/2000/svg" xmlns:xlink="http://www.w3.org/1999/xlink" x="0px" y="0px"
	 width="100%" viewBox="0 0 500 500" enable-background="new 0 0 500 500" xml:space="preserve">
<path fill="#047857" opacity="1.000000" stroke="none" 
	d="
M246.000000,501.000000 
	C164.000015,501.000000 82.500038,501.000000 1.000044,501.000000 
	C1.000029,334.333405 1.000029,167.666779 1.000015,1.000133 
	C167.666565,1.000089 334.333130,1.000089 500.999756,1.000044 
	C500.999847,167.666519 500.999847,334.333038 500.999939,500.999786 
	C416.166656,501.000000 331.333344,501.000000 246.000000,501.000000 
M213.796249,307.301178 
	C233.281311,286.283752 241.767944,261.573273 238.009949,233.078934 
	C229.464966,168.288300 156.617615,133.445404 101.018936,169.158325 
	C68.143135,190.275574 54.694847,221.615082 60.468834,260.150208 
	C65.881432,296.273407 93.465027,324.900024 129.960144,332.750793 
	C161.984451,339.639771 189.786697,330.364807 213.796249,307.301178 
M263.994263,232.513016 
	C263.728699,234.826889 263.289276,237.135834 263.223572,239.455368 
	C262.160248,276.978577 277.474182,306.040619 310.459991,323.810181 
	C343.832581,341.788147 376.964447,338.711182 407.527374,316.133881 
	C437.845337,293.737549 450.315460,253.640060 438.879639,218.072235 
	C427.129364,181.526291 393.911224,156.178772 356.263428,155.030960 
	C310.189850,153.626266 272.028107,185.335266 263.994263,232.513016 
z"/>
<path fill="#FEFEFE" opacity="1.000000" stroke="none" 
	d="
M213.553970,307.556519 
	C189.786697,330.364807 161.984451,339.639771 129.960144,332.750793 
	C93.465027,324.900024 65.881432,296.273407 60.468834,260.150208 
	C54.694847,221.615082 68.143135,190.275574 101.018936,169.158325 
	C156.617615,133.445404 229.464966,168.288300 238.009949,233.078934 
	C241.767944,261.573273 233.281311,286.283752 213.553970,307.556519 
M218.826218,265.944061 
	C216.026230,244.406662 198.153381,229.097855 173.538910,233.269058 
	C153.252426,236.706848 140.195053,258.152924 145.071808,278.815369 
	C149.768677,298.715576 170.924393,311.507965 190.426041,306.240021 
	C208.845627,301.264404 219.475067,286.551392 218.826218,265.944061 
z"/>
<path fill="#FEFEFE" opacity="1.000000" stroke="none" 
	d="
M264.029175,232.076691 
	C272.028107,185.335266 310.189850,153.626266 356.263428,155.030960 
	C393.911224,156.178772 427.129364,181.526291 438.879639,218.072235 
	C450.315460,253.640060 437.845337,293.737549 407.527374,316.133881 
	C376.964447,338.711182 343.832581,341.788147 310.459991,323.810181 
	C277.474182,306.040619 262.160248,276.978577 263.223572,239.455368 
	C263.289276,237.135834 263.728699,234.826889 264.029175,232.076691 
M285.902954,255.530579 
	C280.128571,270.793610 283.544647,286.751923 294.844696,297.301941 
	C305.928894,307.650452 322.725952,310.211670 336.703766,303.684692 
	C350.323761,297.324799 358.775696,282.937866 357.922424,267.566040 
	C357.011047,251.147736 344.513153,235.910629 328.558167,233.324295 
	C310.742523,230.436325 295.129608,236.259399 285.902954,255.530579 
z"/>
<path fill="#F59F0C" opacity="1.000000" stroke="none" 
	d="
M218.859024,266.391205 
	C219.475067,286.551392 208.845627,301.264404 190.426041,306.240021 
	C170.924393,311.507965 149.768677,298.715576 145.071808,278.815369 
	C140.195053,258.152924 153.252426,236.706848 173.538910,233.269058 
	C198.153381,229.097855 216.026230,244.406662 218.859024,266.391205 
z"/>
<path fill="#F59F0C" opacity="1.000000" stroke="none" 
	d="
M286.030151,255.168076 
	C295.129608,236.259399 310.742523,230.436325 328.558167,233.324295 
	C344.513153,235.910629 357.011047,251.147736 357.922424,267.566040 
	C358.775696,282.937866 350.323761,297.324799 336.703766,303.684692 
	C322.725952,310.211670 305.928894,307.650452 294.844696,297.301941 
	C283.544647,286.751923 280.128571,270.793610 286.030151,255.168076 
z"/>
</svg>